<svg width="144" height="144" viewBox="0 0 144 144" fill="none" xmlns="http://www.w3.org/2000/svg">
<circle cx="72" cy="71" r="68" fill="#131313"/>
<path d="M71.9999 67.0333C66.1999 67.0333 61.4472 65.1806 57.7416 61.475C54.036 57.7694 52.1833 53.0167 52.1833 47.2167C52.1833 41.3361 54.036 36.5431 57.7416 32.8375C61.4472 29.1319 66.1999 27.2792 71.9999 27.2792C77.7999 27.2792 82.5729 29.1319 86.3187 32.8375C90.0645 36.5431 91.9374 41.3361 91.9374 47.2167C91.9374 53.0167 90.0645 57.7694 86.3187 61.475C82.5729 65.1806 77.7999 67.0333 71.9999 67.0333ZM31.6416 109.204V96.0333C31.6416 92.7306 32.4874 89.8507 34.1791 87.3938C35.8708 84.9368 38.086 83.0639 40.8249 81.775C46.3027 79.2778 51.5791 77.425 56.6541 76.2167C61.7291 75.0083 66.8444 74.4042 71.9999 74.4042C77.236 74.4042 82.3715 75.0285 87.4062 76.2771C92.4409 77.5257 97.6569 79.3583 103.054 81.775C105.874 82.9833 108.149 84.816 109.881 87.2729C111.613 89.7299 112.479 92.65 112.479 96.0333V109.204H31.6416Z" fill="#FFEC8F"/>
</svg>
